<svg xmlns="http://www.w3.org/2000/svg" id="Ebene_2" viewBox="0 0 296.34 258.52"><defs><style>.cls-1{fill:#d90f16;}.cls-2{fill:#d91519;}.cls-3{fill:#363c42;}</style></defs><g id="Merz_Anniversary"><path class="cls-3" d="m271.89,91.65C256.17,37.6,206.21,0,149.71,0S43.25,37.6,27.52,91.65H0v5h88.98v-5h-5.84c12.93-23.53,38.02-38.53,65.03-38.53s52.1,15,65.03,38.53h-5.86v5h88.98v-5h-24.44Zm-123.72-43.53c-29.74,0-57.3,17.04-70.68,43.53h-44.76C48.29,40.47,95.9,5,149.71,5s101.42,35.47,116.97,86.65h-47.82c-13.38-26.49-40.94-43.53-70.68-43.53Z"></path><path class="cls-3" d="m207.35,169.38h4.42c-13.38,22.32-37.37,36.02-63.6,36.02s-50.22-13.7-63.6-36.02h4.4v-5H0v5h28.28c7.86,25.02,23.65,47.48,44.67,63.4,22.24,16.84,48.79,25.75,76.76,25.75s54.52-8.9,76.76-25.75c21.02-15.92,36.81-38.38,44.67-63.4h25.2v-5h-88.98v5Zm16.09,59.41c-21.37,16.18-46.87,24.73-73.74,24.73s-52.38-8.55-73.74-24.73c-19.78-14.98-34.74-35.98-42.44-59.41h45.29c13.94,25.34,40.37,41.02,69.36,41.02s55.42-15.68,69.36-41.02h48.35c-7.7,23.43-22.66,44.43-42.44,59.41Z"></path><path class="cls-2" d="m76.08,77.83l-3.55-3.05c.37-2.72.48-5.16.32-7.34s-.51-4.02-1.07-5.55c-.56-1.52-1.24-2.63-2.04-3.32-1.26-1.08-2.42-1-3.48.24-.61.71-.91,1.51-.89,2.39.02.88.25,1.71.7,2.47l-5.36,1.99c-.66-1.14-1.05-2.37-1.16-3.7-.11-1.33.06-2.67.51-4.02s1.18-2.61,2.18-3.78c1.16-1.35,2.4-2.28,3.74-2.81,1.34-.53,2.67-.67,3.99-.42,1.32.25,2.54.87,3.65,1.85,1.6,1.38,2.79,3.25,3.57,5.63.78,2.38.97,5.36.58,8.94l5.82-6.77,4.21,3.61-11.7,13.63Z"></path><path class="cls-2" d="m95.2,58.9c-.5.37-1.13.77-1.88,1.21-.75.44-1.54.8-2.37,1.1-.83.29-1.6.46-2.33.48l-2.37-5.77c.96-.11,1.92-.33,2.88-.67.96-.33,1.89-.83,2.78-1.48.99-.73,1.62-1.46,1.92-2.19.29-.74.16-1.48-.39-2.23-.31-.43-.7-.7-1.17-.84-.47-.13-1.08-.06-1.82.2-.74.26-1.7.8-2.87,1.6l-3.7,2.5-7.54-12.24,11.37-8.37,3.29,4.46-6.35,4.67,1.75,2.87c2.54-1.6,4.89-2.35,7.04-2.25,2.15.1,3.98,1.19,5.5,3.26.98,1.33,1.5,2.81,1.56,4.42.06,1.61-.36,3.23-1.24,4.84-.88,1.62-2.23,3.09-4.05,4.43Z"></path><path class="cls-2" d="m119.61,45.48c-2.11.71-4.05.82-5.82.33-1.76-.49-3.22-1.55-4.37-3.16l4.68-4.36c.54.68,1.08,1.11,1.63,1.29.56.18,1.11.18,1.65,0,.64-.22,1.07-.58,1.3-1.1.23-.52.22-1.13-.01-1.84l-5.53-16.37,6.82-2.3,5.24,15.52c.95,2.82.93,5.3-.06,7.43-.99,2.13-2.84,3.66-5.54,4.57Z"></path><path class="cls-2" d="m130.91,40.71l9.94-26.11,5.97-.31,12.17,24.97-7.26.37-2.03-4.47-9.89.51-1.63,4.66-7.26.37Zm11.04-11.1l5.07-.26-2.8-6.13-2.27,6.39Z"></path><path class="cls-2" d="m162.12,39.97l6.8-24.64,6.94,1.92-2.56,9.27,8.82,2.43,2.55-9.27,6.94,1.92-6.8,24.64-6.94-1.92,2.58-9.37-8.81-2.43-2.58,9.37-6.94-1.92Z"></path><path class="cls-2" d="m212.27,55.4l-1.63,5.55c-.73.07-1.57-.04-2.53-.33-.96-.29-1.85-.7-2.67-1.24-1.59-1.03-2.72-2.18-3.39-3.44-.67-1.26-.98-2.64-.93-4.12l.18-4.65c.02-.56-.02-1.01-.11-1.36s-.28-.65-.56-.92l-4.95,7.64-5.92-3.84,13.9-21.45,7.25,4.7c3.3,2.14,5.34,4.35,6.11,6.62.77,2.27.44,4.52-1,6.73-1.02,1.57-2.32,2.58-3.89,3.03-1.58.45-3.25.4-5.02-.14.61.74.92,1.58.93,2.53l.02,1.17c0,1.11.52,2.01,1.56,2.69.38.25.79.45,1.22.6.43.15.91.22,1.43.22Zm-4.58-18.62l-1.27-.82-2.76,4.26,1.54,1c1.31.85,2.33,1.26,3.08,1.24.74-.02,1.35-.4,1.84-1.15.52-.81.53-1.58.03-2.32-.51-.74-1.32-1.48-2.45-2.21Z"></path><path class="cls-2" d="m238.1,65.13l-7.61-8.7-2.63,2.3,6.99,8-4.63,4.05-6.99-8-2.71,2.37,7.8,8.92-4.92,3.73-12.18-13.93,19.24-16.82,12.28,14.04-4.63,4.05Z"></path><path class="cls-3" d="m67.24,188.13l3.15,4.82-6.14,4.01-1.34-2.05.93-.88c-.67-.08-1.28-.34-1.84-.78-.56-.45-1.04-.98-1.45-1.61-.73-1.12-1.15-2.24-1.24-3.36-.09-1.11.13-2.17.67-3.16s1.39-1.87,2.56-2.63c1.19-.78,2.4-1.2,3.65-1.28,1.24-.08,2.43.19,3.55.8,1.12.61,2.1,1.55,2.93,2.83.7,1.07,1.1,2.1,1.21,3.08.1.98-.06,1.97-.5,2.97l-2.75-1.04c.3-.58.41-1.17.33-1.78-.09-.61-.3-1.17-.64-1.69-.48-.74-1.05-1.28-1.7-1.61-.65-.33-1.34-.47-2.08-.4s-1.47.33-2.19.8c-1.05.69-1.68,1.49-1.89,2.42-.21.92,0,1.87.63,2.84.25.38.57.72.95,1.02.38.3.8.49,1.25.58.45.09.9.03,1.35-.19l-1.51-2.31,2.12-1.38Z"></path><path class="cls-3" d="m71.68,195.2l4.85-4.66,1.94,2.41-5.59,3.75-1.2-1.5Z"></path><path class="cls-3" d="m69.87,204.04l9.79-9.29,1.86,1.82-3.35,10.16,10.07-3.56,1.86,1.82-9.2,9.88-2.14-2.1,4.8-5.14-7.41,2.58-1.61-1.58,2.42-7.37-5.05,4.79-2.05-2.01Z"></path><path class="cls-3" d="m82.54,216.19l12.6-7.58,2.12,1.51-3.26,14.25-2.57-1.83.72-2.87-4.53-3.23-2.51,1.59-2.57-1.83Zm7.45-1.24l2.83,2.02,1.14-4.53-3.97,2.51Z"></path><path class="cls-3" d="m107.15,228.4c-.92.54-1.93.8-3.02.77-1.09-.03-2.16-.33-3.21-.89-1.29-.69-2.26-1.51-2.92-2.46-.66-.96-1-2-1.01-3.14-.02-1.14.3-2.32.96-3.55.68-1.26,1.54-2.22,2.58-2.89,1.04-.66,2.19-1.01,3.43-1.03,1.24-.03,2.49.3,3.74.97,1.09.59,1.91,1.28,2.45,2.09.54.81.85,1.75.92,2.84l-2.89.37c0-.66-.16-1.23-.5-1.71s-.78-.87-1.32-1.16c-.7-.38-1.4-.54-2.1-.5s-1.35.27-1.96.7-1.11,1.01-1.52,1.77c-.59,1.11-.76,2.12-.51,3.04.25.93.91,1.67,1.97,2.24.57.31,1.18.46,1.84.46.65,0,1.29-.2,1.9-.59l1.17,2.68Z"></path><path class="cls-3" d="m107.89,231.56l4.66-12.66,2.91,1.07-1.85,5.01,5.29,1.95,1.85-5.01,2.92,1.08-4.67,12.66-2.92-1.08,1.88-5.1-5.29-1.95-1.88,5.1-2.91-1.07Z"></path><path class="cls-3" d="m136.36,225.9l-.99,2.56-3.98-.9-2.38,10.51-3.04-.69,2.38-10.51-4.17-.94.6-2.65,11.58,2.62Z"></path><path class="cls-3" d="m139.35,239.63l1.18-13.44,3.08.27-1.18,13.44-3.08-.27Z"></path><path class="cls-3" d="m154.37,226.64l2.98-.04.16,13.49-2.75.03-6.09-8.31.1,8.38-2.98.04-.16-13.49,2.75-.03,6.09,8.31-.1-8.38Z"></path><path class="cls-3" d="m176.76,234.1l1.17,2.21c-.23.26-.55.5-.95.71-.41.21-.83.36-1.28.44-.81.16-1.55.13-2.22-.08-.67-.21-1.27-.59-1.79-1.15l-2.08-2.22c-.24-.26-.47-.43-.67-.52-.2-.08-.42-.11-.66-.08l1,5.11-2.98.58-2.59-13.24,4.34-.85c1.83-.36,3.27-.26,4.33.29,1.06.55,1.71,1.48,1.97,2.77.2,1.02.05,1.91-.45,2.68s-1.22,1.35-2.17,1.74c.45.12.87.38,1.27.78l.83.85c.51.52,1.09.71,1.74.59.24-.05.46-.12.66-.22s.39-.23.56-.41Zm-8.41-6.56l-1.19.23.64,3.28,1.17-.23c.93-.18,1.58-.45,1.94-.8.36-.35.48-.81.37-1.38-.11-.57-.42-.94-.93-1.1-.51-.17-1.17-.17-2,0Z"></path><path class="cls-3" d="m179.15,236.52l1.07-14.67,2.46-.86,9.76,10.88-2.98,1.04-1.93-2.24-5.25,1.84-.15,2.97-2.98,1.04Zm3.28-6.8l3.28-1.15-3.05-3.54-.23,4.69Z"></path><path class="cls-3" d="m193.9,230.99l-5.66-12.25,2.81-1.3,5.66,12.25-2.81,1.3Z"></path><path class="cls-3" d="m203.54,226.29c-1.44.82-2.73,1.15-3.88.99s-2.11-.81-2.91-1.95l2.32-1.81c.39.53.87.84,1.43.92.56.08,1.18-.07,1.86-.46.58-.33.97-.69,1.17-1.07.2-.38.19-.76-.03-1.14-.19-.34-.51-.52-.96-.53-.44,0-1.09.12-1.95.37-.93.27-1.75.42-2.47.46-.72.04-1.35-.08-1.9-.37-.54-.29-1.01-.78-1.41-1.47-.41-.73-.59-1.48-.54-2.25.05-.77.33-1.51.82-2.21.49-.7,1.18-1.3,2.06-1.8,1.14-.65,2.25-.9,3.3-.73,1.06.17,1.93.73,2.62,1.68l-2.13,1.75c-.35-.4-.75-.63-1.21-.7-.46-.06-.93.04-1.41.32-.48.28-.81.61-.98,1.01-.17.4-.14.78.08,1.17.2.35.51.55.91.6.41.05,1.05-.05,1.91-.29.92-.26,1.74-.43,2.46-.52.72-.09,1.37,0,1.92.25s1.05.74,1.47,1.48c.41.72.58,1.46.51,2.23-.07.77-.37,1.51-.89,2.22-.52.71-1.24,1.33-2.17,1.85Z"></path><path class="cls-3" d="m211.31,204.42l1.31,2.41-3.27,2.45,6.46,8.62-2.49,1.87-6.46-8.62-3.42,2.56-1.63-2.18,9.5-7.12Z"></path><path class="cls-3" d="m221.33,213.35l-9.09-9.98,2.29-2.08,9.08,9.97-2.29,2.09Z"></path><path class="cls-3" d="m221.94,193.52l1.99-2.22,10.03,9.02-1.84,2.05-10.23-1.15,6.23,5.6-1.99,2.22-10.03-9.02,1.84-2.05,10.23,1.15-6.23-5.6Z"></path><path class="cls-3" d="m233.89,187.71l3.19-4.79,6.11,4.06-1.36,2.04-1.17-.5c.19.65.2,1.31,0,2-.19.69-.49,1.34-.91,1.96-.75,1.12-1.61,1.94-2.59,2.46-.99.52-2.04.73-3.17.63-1.13-.1-2.27-.54-3.43-1.31-1.18-.79-2.05-1.74-2.61-2.85-.56-1.11-.78-2.3-.66-3.58.12-1.28.6-2.55,1.44-3.81.71-1.06,1.49-1.84,2.35-2.32.86-.48,1.84-.72,2.93-.71l.12,2.93c-.65-.05-1.24.08-1.76.4-.52.32-.96.74-1.3,1.26-.49.74-.76,1.47-.81,2.2-.05.73.1,1.42.45,2.07s.88,1.21,1.6,1.69c1.04.69,2.03.96,2.97.79.93-.17,1.72-.73,2.36-1.69.25-.38.44-.8.56-1.27.12-.47.13-.93.04-1.38-.09-.45-.33-.84-.71-1.17l-1.52,2.29-2.1-1.4Z"></path><path class="cls-3" d="m263.05,158.95v-6.82h-2.09v6.82h2.09Zm-12.31,0h7.57v-1.64h-5.48v-1.09h5.08v-1.41h-5.08v-1.09h5.37v-1.58h-7.45v6.81Zm-11.03,0h2.09v-1.77h3.29c.65,0,.86.24.86.95v.82h2.09v-1.16c0-1.12-.52-1.39-1.14-1.51v-.02c.96-.23,1.17-.76,1.17-1.68v-.43c0-1.22-.43-2.02-2.04-2.02h-6.31v6.81Zm2.09-5.12h3.27c.66,0,.96.11.96.71v.22c0,.49-.21.72-.77.72h-3.46v-1.66Zm-12.2,5.12h7.58v-1.64h-5.49v-1.09h5.08v-1.41h-5.08v-1.09h5.37v-1.58h-7.45v6.81Zm-11.96,0h2.09v-4.95h.02l3.92,4.95h3.24v-6.81h-2.09v4.95h-.02l-3.93-4.95h-3.24v6.81Zm-2.8,0v-6.82h-2.09v6.82h2.09Zm-12.31,0h7.58v-1.64h-5.49v-1.09h5.08v-1.41h-5.08v-1.09h5.37v-1.58h-7.45v6.81Zm-11.03,0h2.09v-1.77h3.29c.65,0,.86.24.86.95v.82h2.09v-1.16c0-1.12-.52-1.39-1.14-1.51v-.02c.96-.23,1.17-.76,1.17-1.68v-.43c0-1.22-.43-2.02-2.04-2.02h-6.31v6.81Zm2.09-5.12h3.27c.66,0,.96.11.96.71v.22c0,.49-.21.72-.77.72h-3.46v-1.66Zm-13.35,5.12h2.09v-2.58h4.41v2.58h2.09v-6.81h-2.09v2.43h-4.41v-2.43h-2.09v6.81Zm-11.42-2.39c0,2,1.12,2.47,3,2.47h3.37c2.1,0,2.51-.9,2.51-2.05v-.64h-2.09c0,.85-.28.94-1.22.94h-2.23c-.99,0-1.2-.38-1.2-1.36v-.74c0-.85.21-1.37,1.31-1.37h2.28c.62,0,.98.14.98.63v.19h2.09c.02-1.93-.37-2.57-3.34-2.57h-2.46c-1.88,0-3,.47-3,2.46v2.03Zm-11,.63c0,1.48.76,1.83,2.66,1.83h2.53c2.78,0,3.4-.3,3.4-2.14,0-1.99-.75-2.18-4-2.18-2.24.01-2.5,0-2.5-.6,0-.37.32-.53.79-.53h2.32c.96,0,1.02,0,1.02.5h2.09v-.22c0-1.2-.23-1.81-2.63-1.81h-2.92c-2.63,0-2.75.95-2.75,2.18,0,1.67.36,2.05,3.5,2.05,2.69,0,2.94.04,2.94.63,0,.53-.45.58-.89.58h-2.56c-.6,0-.9.15-.9-.58h-2.09v.27Z"></path><polygon class="cls-3" points="82.22 102.3 67.49 129.65 52.76 102.3 32.74 102.3 32.74 144.8 45.42 144.8 45.42 114.28 45.54 114.28 62.62 144.8 72.36 144.8 89.44 114.28 89.56 114.28 89.56 144.8 102.24 144.8 102.24 102.3 82.22 102.3"></polygon><path class="cls-3" d="m157.82,144.8h13.03v-11.03h20.48c4.05,0,5.34,1.47,5.34,5.93v5.11h13.03v-7.22c0-6.99-3.23-8.69-7.1-9.39v-.12c5.99-1.41,7.28-4.75,7.28-10.45v-2.7c0-7.63-2.7-12.62-12.74-12.62h-39.33v42.5Zm13.03-31.93h20.37c4.11,0,5.99.71,5.99,4.46v1.41c0,3.05-1.29,4.46-4.81,4.46h-21.54v-10.33Z"></path><polygon class="cls-3" points="212.61 144.8 263.03 144.8 263.03 134.58 231.92 134.58 231.92 134.47 262.32 112.52 262.32 102.3 213.43 102.3 213.43 112.52 243.07 112.52 243.07 112.63 212.61 134.58 212.61 144.8"></polygon><polygon class="cls-1" points="94.29 122.87 130.28 158.87 138.85 150.3 113.79 125.24 119.5 119.52 144.56 144.59 151.95 137.2 126.89 112.14 132.6 106.43 157.66 131.49 165.94 123.21 129.94 87.22 94.29 122.87"></polygon></g></svg>